<svg width="20" height="20" viewBox="0 0 20 20" fill="none" xmlns="http://www.w3.org/2000/svg">
<g id="Icon pack">
<path id="Vector" d="M1.66663 13.3333C1.66663 10.9763 1.66663 9.79781 2.39886 9.06556C3.13109 8.33331 4.3096 8.33331 6.66663 8.33331H13.3333C15.6903 8.33331 16.8688 8.33331 17.601 9.06556C18.3333 9.79781 18.3333 10.9763 18.3333 13.3333C18.3333 15.6903 18.3333 16.8688 17.601 17.6011C16.8688 18.3333 15.6903 18.3333 13.3333 18.3333H6.66663C4.3096 18.3333 3.13109 18.3333 2.39886 17.6011C1.66663 16.8688 1.66663 15.6903 1.66663 13.3333Z" stroke="#A8A8BD" stroke-width="1.5"/>
<path id="Vector_2" d="M5 8.33335V6.66669C5 3.90526 7.23857 1.66669 10 1.66669C12.7614 1.66669 15 3.90526 15 6.66669V8.33335" stroke="#A8A8BD" stroke-width="1.5" stroke-linecap="round"/>
<path id="Vector_3" d="M6.66663 13.3333H6.67413M9.99246 13.3333H9.99996M13.3258 13.3333H13.3333" stroke="#A8A8BD" stroke-width="2" stroke-linecap="round" stroke-linejoin="round"/>
</g>
</svg>
