<svg width="345" height="350" viewBox="0 0 345 350" fill="none" xmlns="http://www.w3.org/2000/svg">
<path d="M330.511 309.889C329.001 309.039 327.111 308.355 325.107 307.898C320.579 306.871 315.531 306.795 310.61 306.731C267.967 306.212 225.615 306.021 182.96 306.021C149.373 305.755 115.799 305.476 82.2122 305.311C66.4208 305.235 50.5914 305.172 34.8508 305.907C28.3313 306.212 21.5455 306.706 16.1548 308.722C10.7643 310.739 7.33963 314.721 10.0793 317.942C14.6328 323.268 29.8914 322.963 38.7066 322.976C106.679 323.078 174.665 322.875 242.637 322.659C265.392 322.583 288.147 322.52 310.863 321.86C315.95 321.708 321.201 321.518 325.767 320.288C330.346 319.07 334.138 316.559 333.859 313.808C333.72 312.311 332.413 310.967 330.511 309.889Z" fill="#D9E0FC"/>
<path d="M332.806 191.929C331.652 192.183 330.333 192.322 328.849 192.322C277.835 192.322 226.833 192.322 175.819 192.31C150.311 192.31 124.804 192.31 99.3098 192.297C87.4378 192.297 39.8227 198.866 34.6604 187.136C33.5695 184.663 33.5696 181.936 33.5696 179.273C33.5696 129.069 33.7091 78.864 33.7091 28.6593C33.7091 26.884 33.7091 25.0959 33.7091 23.3206C33.7091 19.567 37.0576 16.5235 41.1799 16.5235C96.9633 16.5235 152.734 16.5235 208.517 16.5235C237.348 16.5235 266.178 16.5235 295.021 16.5235C307.159 16.5235 340.391 10.8677 340.391 26.7572C340.391 56.951 340.378 87.1575 340.378 117.351C340.378 132.797 340.378 148.255 340.378 163.701C340.366 173.529 344.881 189.253 332.806 191.929Z" fill="#D9E0FC"/>
<path d="M315.594 181.721C310.939 184.917 302.327 183.103 295.16 183.103C281.043 183.103 266.939 183.103 252.822 183.103C214.631 183.103 176.453 183.103 138.262 183.103C99.7788 183.103 61.3087 183.103 22.826 183.103C21.5323 183.103 20.4922 182.063 20.4922 180.77C20.4795 150.855 20.3019 120.928 20.2385 91.0127C20.2004 76.0489 20.2004 61.0978 20.2639 46.134C20.3019 36.3442 16.3065 14.8369 22.8894 7.17752C24.7413 5.0344 48.6376 7.68476 51.6183 7.68476C64.4417 7.6594 77.265 7.63404 90.0756 7.60868C114.961 7.55795 139.847 7.50724 164.733 7.44383C198.167 7.44383 231.614 7.30432 265.049 7.22824C282.642 7.19019 315.366 7.29165 317.839 7.31701C321.023 7.35506 319.653 56.8877 319.678 60.5525C319.843 80.9819 319.742 101.424 319.551 121.853C319.412 137.109 319.196 152.364 319.031 167.632C319.006 169.661 318.981 171.69 318.981 173.719C318.993 177.815 317.687 180.275 315.594 181.721Z" fill="#FFC543"/>
<path d="M309.442 166.554C300.285 166.313 291.102 166.491 281.944 166.491C272.773 166.491 263.603 166.504 254.445 166.504C236.104 166.516 217.776 166.529 199.436 166.542C162.957 166.567 126.465 166.58 89.9868 166.681C79.7002 166.707 69.4009 166.732 59.1143 166.77C48.8404 166.795 38.4903 166.669 28.2418 167.391C27.6457 167.429 27.6457 168.266 28.2418 168.317C37.3868 168.964 46.5827 168.85 55.7404 168.926C64.9108 169.002 74.0812 168.976 83.2389 169.002C101.58 169.053 119.908 169.065 138.249 169.091C174.727 169.141 211.219 169.167 247.697 169.192C257.984 169.205 268.283 169.205 278.57 169.217C288.857 169.23 299.156 169.433 309.442 169.167C311.129 169.129 311.142 166.592 309.442 166.554Z" fill="#0E3F41"/>
<path d="M298.902 165.16C298.598 164.221 298.065 163.397 297.329 162.712C296.378 161.774 295.262 161.114 293.968 160.759C293.74 160.683 293.511 160.607 293.296 160.531C292.294 160.214 291.292 160.176 290.302 160.391C289.3 160.442 288.375 160.734 287.512 161.279C287.005 161.672 286.497 162.065 285.99 162.458C285.254 163.143 284.734 163.942 284.443 164.881C284.1 165.464 283.935 166.098 283.935 166.783C283.707 167.785 283.758 168.774 284.075 169.775C284.328 170.371 284.582 170.968 284.836 171.576C285.508 172.705 286.409 173.605 287.537 174.277C287.74 174.417 287.931 174.556 288.134 174.696C289.326 175.381 290.607 175.736 291.977 175.736C292.649 175.647 293.321 175.558 294.006 175.469C295.3 175.102 296.416 174.455 297.367 173.516C298.116 172.832 298.636 172.007 298.94 171.069C299.422 170.156 299.638 169.179 299.6 168.14C299.6 167.049 299.384 166.073 298.902 165.16Z" fill="#0E3F41"/>
<path d="M260.191 231.558L51.8343 228.476L52.6587 12.9092L259.583 14.507L260.191 231.558Z" fill="white" stroke="#121212" stroke-width="0.5" stroke-miterlimit="10"/>
<path d="M98.5486 182.977C97.9271 190.915 97.3055 198.841 96.684 206.779C96.5952 207.857 95.8342 208.77 94.6926 208.77C91.0397 208.783 87.3994 208.795 83.7465 208.821C80.4741 208.833 77.2017 208.846 73.9292 208.859C73.0667 208.859 72.1662 208.872 71.3925 208.415C70.5427 207.908 70.1367 207.033 70.0226 206.094C69.8577 204.56 70.0353 202.937 70.0734 201.39C70.2002 194.846 70.4412 188.303 71.1642 181.785C71.291 180.605 72.6101 180.339 73.2189 181.024C74.2844 180.694 75.5654 180.846 76.6182 180.846C77.9373 180.846 79.2437 180.859 80.5628 180.859C85.8647 180.884 91.1793 180.91 96.4811 180.91C97.5339 180.91 98.6374 181.861 98.5486 182.977ZM92.8408 204.801C93.3228 198.219 93.7921 191.638 94.274 185.056C91.1665 185.069 88.0463 185.094 84.9388 185.107C83.0108 185.12 81.0829 185.132 79.1677 185.145C78.1783 185.158 77.2016 185.158 76.2123 185.158C75.8572 185.158 75.5021 185.158 75.1469 185.158C74.7664 185.475 74.2844 185.665 73.777 185.69C73.8785 187.808 73.9419 189.939 73.9799 192.069C74.0307 195.125 73.98 198.181 73.9419 201.237C73.9292 202.036 73.9165 202.835 73.9038 203.634C73.8912 204.053 73.9165 204.497 73.9165 204.94C74.0814 204.953 74.2337 204.966 74.3605 204.966L76.466 204.953C81.92 204.902 87.3741 204.852 92.8408 204.801Z" fill="#0E3F41"/>
<path d="M98.5486 136.69C97.9271 144.629 97.3055 152.555 96.684 160.493C96.5952 161.571 95.8342 162.484 94.6926 162.484C91.0397 162.497 87.3994 162.509 83.7465 162.535C80.4741 162.547 77.2017 162.56 73.9292 162.573C73.0667 162.573 72.1662 162.585 71.3925 162.129C70.5427 161.622 70.1367 160.747 70.0226 159.808C69.8577 158.274 70.0353 156.651 70.0734 155.103C70.2002 148.56 70.4412 142.017 71.1642 135.498C71.291 134.319 72.6101 134.053 73.2189 134.738C74.2844 134.408 75.5654 134.56 76.6182 134.56C77.9373 134.56 79.2437 134.573 80.5628 134.573C85.8647 134.598 91.1793 134.623 96.4811 134.623C97.5339 134.623 98.6374 135.575 98.5486 136.69ZM92.8408 158.515C93.3228 151.933 93.7921 145.352 94.274 138.77C91.1665 138.783 88.0463 138.808 84.9388 138.821C83.0108 138.834 81.0829 138.846 79.1677 138.859C78.1783 138.859 77.2016 138.872 76.2123 138.872C75.8572 138.872 75.5021 138.872 75.1469 138.872C74.7664 139.189 74.2844 139.379 73.777 139.404C73.8785 141.522 73.9419 143.652 73.9799 145.783C74.0307 148.839 73.98 151.895 73.9419 154.951C73.9292 155.75 73.9165 156.549 73.9038 157.348C73.8912 157.767 73.9165 158.21 73.9165 158.654C74.0814 158.667 74.2337 158.68 74.3605 158.68L76.466 158.667C81.92 158.616 87.3741 158.565 92.8408 158.515Z" fill="#0E3F41"/>
<path d="M98.5486 90.4043C97.9271 98.3427 97.3055 106.268 96.684 114.207C96.5952 115.285 95.8342 116.198 94.6926 116.198C91.0397 116.21 87.3994 116.223 83.7465 116.249C80.4741 116.261 77.2017 116.274 73.9292 116.287C73.0667 116.287 72.1662 116.299 71.3925 115.843C70.5427 115.335 70.1367 114.46 70.0226 113.522C69.8577 111.988 70.0353 110.364 70.0734 108.817C70.2002 102.274 70.4412 95.7304 71.1642 89.2123C71.291 88.0329 72.6101 87.7666 73.2189 88.4514C74.2844 88.1217 75.5654 88.2739 76.6182 88.2739C77.9373 88.2739 79.2437 88.2866 80.5628 88.2866C85.8647 88.3119 91.1793 88.3373 96.4811 88.3373C97.5339 88.3373 98.6374 89.2884 98.5486 90.4043ZM92.8408 112.229C93.3228 105.647 93.7921 99.0655 94.274 92.484C91.1665 92.4967 88.0463 92.5221 84.9388 92.5347C83.0108 92.5474 81.0829 92.5601 79.1677 92.5728C78.1783 92.5728 77.2016 92.5855 76.2123 92.5855C75.8572 92.5855 75.5021 92.5855 75.1469 92.5855C74.7664 92.9025 74.2844 93.0927 73.777 93.1181C73.8785 95.2358 73.9419 97.3663 73.9799 99.4967C74.0307 102.553 73.98 105.609 73.9419 108.665C73.9292 109.464 73.9165 110.263 73.9038 111.062C73.8912 111.48 73.9165 111.924 73.9165 112.368C74.0814 112.381 74.2337 112.393 74.3605 112.393L76.466 112.381C81.92 112.33 87.3741 112.279 92.8408 112.229Z" fill="#0E3F41"/>
<path d="M210.851 92.8262C204.192 92.6487 197.52 92.7882 190.861 92.8009C184.266 92.8136 177.657 92.8135 171.062 92.8262C157.731 92.8389 144.4 92.9023 131.082 92.9657C127.366 92.9784 123.65 93.0038 119.933 93.0165C116.166 93.0291 112.348 92.9531 108.594 93.2194C108.112 93.2574 108.112 93.9295 108.594 93.9548C111.905 94.1831 115.266 94.1197 118.589 94.1451C121.925 94.1831 125.248 94.1831 128.584 94.1958C135.179 94.2338 141.788 94.2592 148.383 94.2972C161.714 94.3607 175.045 94.348 188.363 94.3733C195.859 94.386 203.368 94.5509 210.851 94.348C211.84 94.3353 211.84 92.8516 210.851 92.8262Z" fill="#969696"/>
<path d="M164.339 100.042C149.943 99.8769 135.547 99.7374 121.151 99.7374C117.041 99.7374 112.919 99.6993 108.81 99.7627C108.023 99.7754 108.023 100.98 108.81 100.993C123.193 101.221 137.602 101.006 151.998 100.917C156.108 100.891 160.23 100.765 164.339 100.714C164.771 100.714 164.771 100.054 164.339 100.042Z" fill="#969696"/>
<path d="M208.542 107.714C195.567 107.473 182.579 107.663 169.603 107.688C156.628 107.714 143.639 107.727 130.664 107.752C123.333 107.765 116.014 107.777 108.683 107.904C108.087 107.917 108.087 108.817 108.683 108.83C121.658 109.071 134.647 108.995 147.622 109.007C160.598 109.033 173.586 109.045 186.561 109.071C193.893 109.083 201.211 109.147 208.542 109.007C209.38 109.007 209.38 107.727 208.542 107.714Z" fill="#969696"/>
<path d="M174.93 138.91C170.542 138.618 166.09 138.859 161.688 138.872C157.274 138.885 152.861 138.897 148.447 138.91C139.619 138.935 130.803 138.961 121.975 138.986C116.978 138.999 112.006 139.062 107.009 139.24C106.653 139.252 106.653 139.785 107.009 139.798C115.824 140.089 124.652 140.051 133.48 140.077C142.308 140.102 151.123 140.127 159.951 140.153C162.386 140.165 164.809 140.165 167.244 140.178C169.793 140.191 172.368 140.292 174.918 140.115C175.717 140.077 175.717 138.961 174.93 138.91Z" fill="#969696"/>
<path d="M201.655 149.093C189.352 148.738 177.023 148.877 164.72 148.852C152.531 148.827 140.354 148.814 128.165 148.776L117.777 148.751C114.327 148.738 110.839 148.586 107.389 148.852C106.552 148.915 106.552 150.095 107.389 150.158C110.459 150.399 113.554 150.272 116.623 150.272C119.705 150.26 122.775 150.26 125.857 150.247C132.009 150.234 138.173 150.222 144.324 150.209C156.514 150.183 168.69 150.171 180.879 150.145C187.805 150.133 194.73 150.133 201.655 149.93C202.188 149.905 202.188 149.106 201.655 149.093Z" fill="#969696"/>
<path d="M205.257 188.062C192.409 187.745 179.56 187.897 166.711 187.91C153.862 187.91 141.014 187.922 128.165 187.96C120.973 187.986 113.769 188.074 106.577 187.986C105.74 187.973 105.74 189.292 106.577 189.292C119.426 189.14 132.275 189.355 145.123 189.368C157.972 189.368 170.821 189.381 183.669 189.381C190.861 189.381 198.053 189.393 205.257 189.216C205.993 189.203 205.993 188.087 205.257 188.062Z" fill="#969696"/>
<path d="M127.353 194.859C120.555 194.859 113.769 194.998 106.983 195.062C106.501 195.062 106.501 195.797 106.983 195.797C113.769 195.861 120.568 196 127.353 196C128.102 196.013 128.102 194.859 127.353 194.859Z" fill="#969696"/>
<path d="M196.062 195.709C188.54 195.214 180.955 195.43 173.421 195.468C165.811 195.506 158.2 195.557 150.59 195.595C146.303 195.62 142.016 195.645 137.741 195.861C137.259 195.886 137.259 196.584 137.741 196.596C145.276 196.977 152.835 196.875 160.382 196.913C167.992 196.951 175.603 197.002 183.213 197.002C187.5 197.002 191.787 197.028 196.062 196.749C196.734 196.711 196.747 195.759 196.062 195.709Z" fill="#969696"/>
<path d="M166.902 203.178C159.38 202.784 151.795 203.076 144.274 203.101C136.803 203.127 129.307 203.101 121.836 203.368C117.562 203.52 113.262 203.469 108.987 203.482C108.556 203.482 108.556 204.154 108.987 204.154C124.018 204.23 139.035 204.509 154.066 204.573C158.353 204.585 162.64 204.687 166.914 204.458C167.726 204.42 167.726 203.228 166.902 203.178Z" fill="#969696"/>
<path d="M243.398 41.1633C236.143 40.5927 228.684 41.0365 221.404 41.0365C214.529 41.0365 207.655 41.0492 200.793 41.0492C186.815 41.0619 172.85 41.0619 158.873 41.0746C144.895 41.0872 130.93 41.1126 116.953 41.176C102.823 41.2394 88.4267 40.6434 74.3477 41.8608C71.2655 42.1271 71.2528 46.3246 74.3477 46.6035C88.4267 47.8209 102.823 47.2249 116.953 47.2883C130.93 47.3517 144.895 47.3771 158.873 47.3898C172.85 47.4025 186.815 47.4025 200.793 47.4151C207.667 47.4151 214.542 47.4278 221.404 47.4278C228.684 47.4278 236.13 47.8717 243.398 47.301C247.393 46.9713 247.406 41.4804 243.398 41.1633Z" fill="#121212"/>
<path d="M209.57 58.8533C207.249 57.0146 205.41 57.3443 202.467 57.3443C199.727 57.3443 196.988 57.3443 194.248 57.3443L177.125 57.357C165.481 57.3696 153.837 57.3696 142.193 57.3823L107.947 57.4077C102.011 57.4077 96.075 57.4711 90.139 57.5472C85.2176 57.6106 78.622 56.6595 74.1573 58.904C72.9777 59.5001 72.9777 61.3896 74.1573 61.9856C78.6347 64.2428 85.2049 63.279 90.139 63.3424C95.8467 63.4185 101.554 63.4693 107.262 63.4819C118.906 63.4946 130.55 63.4946 142.193 63.5073L176.44 63.5327C182.376 63.5327 188.312 63.5453 194.248 63.5453C196.988 63.5453 199.727 63.5453 202.467 63.5453C205.333 63.5453 207.274 63.8497 209.57 62.0363C210.47 61.3388 210.458 59.5635 209.57 58.8533Z" fill="#121212"/>
<path d="M156.653 156.003C154.662 155.445 153.077 153.226 152.265 151.387C151.402 149.422 151.567 146.848 153.216 145.478C154.269 144.603 155.727 144.375 157.097 144.514C161.346 144.983 164.619 148.801 165.786 152.922C166.953 157.031 166.458 161.418 165.963 165.666C165.595 168.773 165.228 171.88 164.86 174.987C164.15 181.023 164.949 187.339 164.949 193.426C164.949 194.186 164.974 194.973 165.342 195.632C166.027 196.849 167.574 197.192 168.957 197.407C175.59 198.473 182.414 199.753 189.162 199.513C194.578 199.322 197.673 197.712 202.607 201.541C205.309 203.634 207.376 206.893 207.034 210.292C206.843 212.118 205.981 213.83 204.814 215.263C200.21 220.88 191.991 221.641 184.723 221.464C176.148 221.248 167.587 220.335 159.152 218.737C150.59 217.101 144.616 212.815 143.893 203.748C143.209 195.163 145.885 186.59 148.219 178.436C150.388 170.853 154.624 163.866 156.565 156.346C156.603 156.206 156.628 156.105 156.653 156.003Z" fill="#FBC2AA"/>
<path d="M204.725 205.929C204.662 205.548 204.598 205.168 204.535 204.8C203.99 201.034 203.47 196.329 207.566 195.15C210.268 194.364 214.999 194.719 216.8 192.208C217.384 191.396 217.549 190.382 217.688 189.405C217.904 188.01 218.107 186.603 218.322 185.208C210.471 186.552 207.199 179.527 206.209 172.958C205.195 166.25 205.41 157.88 211.321 153.391C215.088 150.525 220.364 149.84 224.791 151.514C229.218 153.188 232.68 157.119 233.936 161.684C234.862 165.058 233.758 166.288 233.568 169.775C233.34 173.719 233.695 180.529 233.479 184.472C233.327 187.123 233.556 190.217 235.001 192.525C235.661 193.577 236.46 194.478 237.576 195.048C238.388 195.467 240.494 195.239 241.001 195.797C243.88 198.954 246.569 202.302 249.689 205.206C242.32 208.3 234.621 210.507 226.744 211.851C221.227 212.802 210.065 216.061 206.26 210.19C205.423 208.896 205.004 207.425 204.725 205.929Z" fill="#FBC2AA"/>
<path d="M269.996 224.507C269.209 214.781 264.846 204.813 255.98 199.944C252.72 198.156 249.131 197.078 245.529 196.228C243.677 195.784 241.8 195.404 239.948 194.985C237.868 194.516 237.449 195.011 236.029 196.57C233.099 199.817 228.469 201.262 224.118 200.806C221.366 200.527 218.715 199.525 216.356 198.105C213.794 196.558 212.893 194.656 209.646 194.833C199.816 195.391 189.999 196.279 180.22 197.496C180.943 206.018 181.514 218.09 183.289 226.447C188.464 225.927 199.905 224.786 199.892 226.358C199.88 228.755 199.93 231.165 200.007 233.561C200.171 238.241 200.463 242.92 200.653 247.599C200.856 252.57 201.224 257.541 201.668 262.487C202.175 268.13 203.038 273.672 204.294 279.15C217.079 283.411 231.665 282.371 245.377 281.128C249.283 280.773 253.342 280.38 256.729 278.389C266.241 272.784 266.647 256.197 268.004 246.547C269.057 239.116 270.605 232.128 269.996 224.507Z" fill="#FFC543"/>
<path d="M171.912 321.429C172.077 321.188 172.254 320.947 172.432 320.719C175.742 316.471 181.463 313.706 186.143 311.208C191.305 308.456 197.077 306.186 203.025 306.529C208.39 306.833 215.836 310.473 216.952 316.154C217.079 316.8 217.13 317.485 216.876 318.081C216.242 319.578 214.225 319.704 212.602 319.717C205.676 319.78 199.017 321.911 192.548 324.206C189.225 325.386 185.915 326.641 182.541 327.719C179.535 328.683 172.229 332.905 170.123 328.518C168.969 326.121 170.58 323.382 171.912 321.429Z" fill="#121212"/>
<path d="M141.889 264.389C144.692 261.295 148.675 259.291 152.759 258.518C158.492 257.44 164.416 258.48 170.047 260.039C181.97 263.324 193.145 268.853 205.118 271.934C210.433 273.304 213.895 272.797 219.083 272.378C225.666 271.846 232.426 272.492 239.047 272.099C245.237 271.732 251.934 271.25 257.731 272.962C258.492 272.454 259.253 271.96 260.014 271.453C266.483 267.204 272.939 262.982 281.056 264.529C287.436 265.746 293.601 268.98 297.545 274.23C301.744 279.809 300.488 287.101 296.721 292.668C293.601 297.271 288.996 300.67 284.227 303.523C267.776 313.389 249.803 319.438 230.384 318.094C227.784 317.916 224.727 317.878 222.85 319.971C222.153 320.757 221.734 325.056 220.174 324.866C218.246 324.637 214.542 324.105 212.728 323.445C202.911 319.907 193.107 316.357 183.289 312.818C174.664 309.699 165.989 306.567 158.137 301.837C151.339 297.753 145.187 292.224 141.585 285.059C138.985 279.898 136.854 273.101 139.568 267.737C140.202 266.507 140.976 265.391 141.889 264.389Z" fill="#0E3F41"/>
<path d="M263.667 279.226C258.149 281.978 252.378 283.741 247.089 287.013C241.813 290.272 236.815 294.076 231.069 296.549C227.353 298.147 221.95 298.768 218.386 300.543" stroke="#121212" stroke-width="0.5" stroke-miterlimit="10"/>
<path d="M222.977 319.223C222.99 319.21 222.99 319.185 223.002 319.172C223.522 317.98 224.03 316.788 224.55 315.596C225.577 313.224 226.605 310.866 227.619 308.494C227.734 308.228 236.549 312.704 237.31 313.326C237.652 313.605 237.982 313.909 238.198 314.29C238.502 314.81 238.565 315.431 238.642 316.027C238.845 317.701 239.098 319.413 238.781 321.074C238.464 322.735 237.437 324.371 235.838 324.904C234.621 325.31 233.302 325.018 232.059 324.739C229.687 324.194 227.366 323.686 225.032 323.002C224.36 322.799 222.597 322.735 222.115 322.253C221.506 321.657 222.711 319.857 222.977 319.223Z" fill="#FBC2AA"/>
<path d="M232.794 310.308C233.441 310.397 234.114 310.422 234.811 310.358C236.232 310.244 237.627 309.839 239.048 309.864C241.876 309.915 243.106 312.121 244.286 314.353C246.366 318.297 250.121 321.175 253.165 324.346C256.983 328.315 259.19 332.056 258.568 337.737C258.352 339.741 257.541 342.036 255.6 342.581C253.812 343.089 252.049 341.833 250.615 340.654C246.721 337.458 242.815 334.275 238.921 331.08C237.145 329.621 235.331 327.681 233.315 326.59C232.033 325.906 230.575 325.398 229.243 324.726C230.676 319.983 231.881 315.177 232.794 310.308Z" fill="#121212"/>
<path d="M212.893 281.813C212.183 281.458 211.638 280.811 211.219 279.607C210.509 277.578 210.927 275.181 212.069 273.393C213.54 271.085 216.242 269.31 218.918 268.752C221.671 268.168 224.334 267.192 227.137 266.621C229.154 266.215 231.133 265.657 233.111 265.1C239.162 263.4 245.681 262.107 251.427 259.57C251.782 259.418 252.137 259.241 252.34 258.911C252.606 258.467 252.492 257.909 252.365 257.402C250.438 249.654 248.675 241.868 247.064 234.043C246.518 231.38 245.986 228.692 246.011 225.978C246.062 221.045 248.04 216.163 251.44 212.587C253.52 210.393 256.399 208.63 259.392 208.973C261.853 209.264 263.971 210.964 265.366 213.031C266.762 215.098 267.51 217.494 268.258 219.853C270.77 227.83 273.687 235.907 274.816 244.201C275.108 246.369 275.095 248.563 275.082 250.744C275.044 257.022 274.879 263.692 271.429 268.929C260.065 286.125 233.708 284.007 216.039 282.359C214.72 282.27 213.705 282.219 212.893 281.813Z" fill="#FBC2AA"/>
<path d="M217.891 148.242C214.694 148.724 211.625 150.018 209.05 152.123C206.184 154.469 205.283 156.954 204.687 160.632C204.649 160.873 204.623 161.139 204.763 161.342C204.915 161.558 205.22 161.608 205.486 161.646C210.052 162.192 214.644 162.585 219.248 162.826C219.755 162.851 220.275 162.876 220.745 162.686C221.911 162.217 222.368 160.632 223.56 160.226C223.725 161.76 223.611 163.333 223.243 164.829C223.078 165.489 222.863 166.186 223.078 166.833C223.51 168.139 225.044 168.114 226.034 168.71C227.264 169.445 228.456 170.942 228.926 172.286C229.547 174.061 229.826 176.001 230.917 177.574C231.196 177.98 231.526 178.347 231.843 178.715C232.439 179.4 233.023 180.085 233.619 180.769C233.986 180.491 234.164 180.047 234.316 179.628C235.559 176.28 236.878 172.958 237.665 169.483C238.375 166.364 238.35 163.041 237.538 159.947C237.183 158.552 236.536 157.144 235.889 155.864C235.534 155.154 235.065 154.405 234.608 153.746C234.468 153.543 233.099 151.755 232.858 151.907C233.162 151.704 233.543 151.324 233.403 150.918C233.238 150.436 232.122 150.779 231.818 150.943C231.995 150.664 232.249 150.423 232.426 150.145C232.604 149.866 232.718 149.498 232.579 149.193C232.49 149.003 232.312 148.864 232.122 148.762C231.627 148.521 231.031 148.585 230.562 148.851C230.067 149.13 229.649 149.637 229.534 150.183C225.78 148.534 222.038 147.621 217.891 148.242Z" fill="#121212"/>
<path d="M168.614 269.665C179.662 274.661 188.553 283.335 198.599 290.107C207.985 296.422 218.385 301.063 228.723 305.679C228.177 306.858 227.962 308.038 227.429 309.217" stroke="#121212" stroke-width="0.5" stroke-miterlimit="10"/>
<path d="M215.798 175.406C215.138 177.561 212.5 178.867 210.395 178.094" stroke="#0F172A" stroke-width="0.5" stroke-miterlimit="10"/>
<path d="M226.947 174.771C231.018 175.786 233.555 171.5 232.312 168.697C230.587 164.804 225.133 165.451 224.131 169.547" fill="#FBC2AA"/>
<path d="M229.027 168.38C228.266 168.164 227.378 168.291 226.731 168.71C226.085 169.128 225.717 169.813 225.742 170.485" stroke="#0F172A" stroke-width="0.5" stroke-miterlimit="10"/>
<path d="M259.341 204.154C251.909 204.94 245.097 210.101 242.345 217.063C239.491 224.292 240.912 232.408 242.37 240.042C247.165 239.902 251.401 240.232 256.17 239.293C262.36 238.076 268.372 236.161 274.194 233.802C272.469 222.757 269.273 212.168 261.383 204.205C260.622 203.418 260.432 204.04 259.341 204.154Z" fill="#FFC543"/>
<path d="M175.54 132.721C169.375 135.422 163.794 138.909 158.505 143.069C155.943 145.085 153.521 147.355 151.238 149.675C150.02 150.918 148.866 152.237 147.724 153.543C147.483 152.82 147.242 152.11 147.001 151.4C146.227 149.092 145.352 146.848 144.388 144.616C143.488 142.498 142.498 140.418 141.433 138.377C140.317 136.233 139.239 133.367 136.956 132.29C135.383 131.541 133.975 132.48 133.759 134.128C133.442 136.563 135.37 138.82 136.461 140.875C137.539 142.916 138.541 144.983 139.454 147.101C140.291 149.016 141.065 151.032 141.763 153.036C142.524 155.204 143.056 157.474 143.856 159.617C144.642 161.723 147.382 162.242 148.663 160.239C150.324 157.627 152.658 155.255 154.776 152.998C156.945 150.69 159.216 148.509 161.537 146.353C166.217 142.003 171.202 137.92 176.364 134.154C177.239 133.52 176.516 132.29 175.54 132.721Z" fill="#0E3F41"/>
<path d="M247.482 287.887H184.862C183.949 287.887 183.2 287.139 183.2 286.226C183.2 285.313 183.949 284.565 184.862 284.565H247.482C248.395 284.565 249.144 285.313 249.144 286.226C249.144 287.139 248.395 287.887 247.482 287.887Z" fill="#121212"/>
<path d="M238.197 285.63H183.39L172.013 257.529C171.645 256.616 172.317 255.614 173.307 255.614H225.107C225.678 255.614 226.186 255.956 226.401 256.489L238.197 285.63Z" fill="#121212"/>
<path d="M199.334 270.641C199.918 272.162 201.884 273.393 203.723 273.393C205.562 273.393 206.589 272.162 206.006 270.641C205.422 269.119 203.456 267.889 201.617 267.889C199.778 267.889 198.751 269.119 199.334 270.641Z" stroke="white" stroke-width="0.5" stroke-miterlimit="10"/>
<path d="M217.916 185.043C218.018 186.096 217.929 187.148 217.827 188.188C217.891 188.175 217.967 188.15 218.03 188.137C220.187 187.465 221.962 185.715 222.876 183.648C221.366 184.485 219.654 184.954 217.916 185.043Z" fill="#121212"/>
<path d="M156.755 156.168C154.383 154.545 151.986 152.909 150.07 150.779C149.677 150.347 149.309 149.865 149.208 149.295C149.106 148.724 149.398 148.052 149.956 147.9C150.578 147.735 151.149 148.255 151.63 148.699C153.444 150.385 155.842 151.463 158.315 151.692" fill="white"/>
<path d="M156.755 156.168C154.383 154.545 151.986 152.909 150.07 150.779C149.677 150.347 149.309 149.865 149.208 149.295C149.106 148.724 149.398 148.052 149.956 147.9C150.578 147.735 151.149 148.255 151.63 148.699C153.444 150.385 155.842 151.463 158.315 151.692" stroke="#0F172A" stroke-width="0.5" stroke-miterlimit="10"/>
<path d="M239.504 332.195C239.605 332.132 239.707 332.056 239.808 331.98C239.922 331.891 240.049 331.84 240.176 331.777C240.43 331.663 240.671 331.549 240.925 331.447C240.823 331.498 240.709 331.536 240.607 331.587C241.077 331.384 241.533 331.13 241.939 330.826C242.041 330.75 242.129 330.674 242.231 330.585C242.396 330.433 242.561 330.293 242.789 330.23C243.195 330.103 243.702 330.306 243.918 330.674C244.108 331.003 244.095 331.371 243.931 331.701C243.893 331.777 243.842 331.84 243.804 331.916C243.715 332.056 243.626 332.195 243.525 332.322C243.271 332.665 243.005 332.994 242.7 333.286C242.396 333.59 242.066 333.869 241.698 334.085C241.47 334.224 241.229 334.376 240.963 334.427C240.696 334.491 240.417 334.516 240.151 334.541C240.037 334.529 239.923 334.516 239.821 334.491C239.656 334.453 239.517 334.376 239.39 334.262C239.187 334.097 238.997 333.869 238.933 333.603C238.794 333.045 239.022 332.512 239.504 332.195Z" fill="#FFC543"/>
<path d="M236.473 328.708C236.536 328.493 236.65 328.302 236.802 328.138C237.081 327.821 237.373 327.504 237.652 327.174C237.779 327.034 237.919 326.946 238.096 326.895C238.261 326.806 238.439 326.768 238.629 326.781C238.819 326.768 238.997 326.819 239.162 326.895C239.327 326.946 239.479 327.047 239.606 327.174C239.682 327.263 239.745 327.364 239.821 327.453C239.948 327.668 240.011 327.897 240.011 328.138C239.999 328.264 239.973 328.379 239.961 328.505C239.897 328.734 239.783 328.936 239.606 329.114C239.288 329.406 238.971 329.685 238.642 329.964C238.527 330.09 238.388 330.179 238.223 330.23C238.071 330.306 237.906 330.344 237.728 330.344C237.551 330.357 237.386 330.319 237.234 330.23C237.069 330.179 236.929 330.09 236.815 329.964C236.752 329.875 236.676 329.786 236.612 329.697C236.498 329.494 236.435 329.279 236.435 329.038C236.435 328.936 236.447 328.822 236.473 328.708Z" fill="#FFC543"/>
<path d="M232.718 325.398C232.921 325.094 233.124 324.789 233.327 324.485C233.403 324.346 233.517 324.219 233.644 324.143C233.758 324.029 233.911 323.965 234.063 323.914C234.228 323.864 234.393 323.851 234.558 323.889C234.722 323.902 234.875 323.94 235.014 324.041C235.103 324.105 235.179 324.168 235.268 324.231C235.42 324.384 235.534 324.574 235.585 324.777C235.598 324.891 235.61 324.992 235.636 325.106C235.636 325.335 235.572 325.538 235.471 325.728C235.268 326.032 235.065 326.337 234.862 326.641C234.786 326.78 234.672 326.907 234.545 326.983C234.431 327.097 234.279 327.161 234.126 327.212C233.961 327.262 233.797 327.275 233.632 327.237C233.467 327.224 233.315 327.186 233.175 327.085C233.086 327.021 233.01 326.958 232.921 326.895C232.769 326.742 232.655 326.552 232.604 326.349C232.592 326.235 232.579 326.134 232.566 326.02C232.541 325.804 232.604 325.588 232.718 325.398Z" fill="#FFC543"/>
<path d="M188.591 322.469C188.667 322.202 188.87 321.924 189.111 321.797C189.377 321.657 189.694 321.594 189.986 321.683C190.075 321.721 190.164 321.759 190.253 321.797C190.417 321.898 190.557 322.038 190.658 322.202C190.849 322.456 191.052 322.71 191.242 322.963C191.343 323.09 191.458 323.204 191.559 323.318C191.61 323.369 191.66 323.42 191.699 323.471C191.787 323.559 191.876 323.661 191.94 323.775C192.003 323.876 192.054 324.016 192.092 324.13C192.181 324.409 192.257 324.688 192.345 324.967C192.447 325.309 192.307 325.677 192.028 325.893C191.762 326.096 191.356 326.146 191.052 325.956C190.849 325.829 190.658 325.702 190.456 325.576C190.405 325.538 190.354 325.512 190.303 325.474C190.1 325.335 189.935 325.183 189.809 324.967C189.733 324.853 189.669 324.739 189.593 324.625C189.327 324.181 188.997 323.775 188.692 323.356C188.54 323.115 188.528 322.722 188.591 322.469Z" fill="#FFC543"/>
<path d="M193.436 320.807C193.513 320.541 193.716 320.262 193.957 320.135C194.35 319.92 194.844 319.755 195.123 320.186C195.567 320.883 196.011 321.581 196.468 322.278C196.823 322.836 197.191 323.483 196.975 324.105C196.912 324.307 196.772 324.498 196.569 324.599C196.29 324.726 195.961 324.637 195.682 324.485C195.2 324.219 194.933 323.749 194.641 323.293C194.565 323.179 194.502 323.065 194.426 322.951C194.159 322.507 193.83 322.101 193.525 321.682C193.386 321.454 193.36 321.061 193.436 320.807Z" fill="#FFC543"/>
<path d="M184.139 324.371C184.19 324.206 184.291 324.054 184.418 323.94C184.672 323.699 185.014 323.534 185.369 323.547C185.712 323.56 186.092 323.674 186.321 323.94C186.828 324.549 187.335 325.145 187.83 325.753C187.957 325.88 188.058 326.02 188.109 326.185C188.198 326.349 188.236 326.514 188.223 326.704C188.236 326.895 188.185 327.06 188.109 327.224C188.058 327.389 187.957 327.541 187.83 327.656C187.576 327.896 187.234 328.061 186.879 328.049C186.536 328.036 186.156 327.922 185.928 327.656C185.42 327.047 184.913 326.451 184.418 325.842C184.291 325.715 184.19 325.576 184.139 325.411C184.05 325.246 184.012 325.081 184.025 324.891C184.012 324.701 184.05 324.536 184.139 324.371Z" fill="#FFC543"/>
<path d="M295.427 280.279C294.844 281.445 295.148 282.904 294.59 284.083C294.184 284.958 293.372 285.567 292.814 286.366C291.952 287.608 291.812 289.358 292.637 290.627C293.448 291.895 295.237 292.491 296.594 291.819C297.672 291.286 298.294 290.119 298.725 288.991C299.613 286.657 300.551 283.005 299.79 280.52C299.156 278.503 296.518 278.072 295.427 280.279Z" fill="#121212"/>
<path d="M139.936 271.592C140.913 270.806 142.359 270.615 143.487 271.199C144.604 271.782 145.301 273.114 145.06 274.344C144.933 275.016 144.553 275.65 144.528 276.335C144.49 277.21 145.022 278.009 145.301 278.845C145.72 280.088 145.542 281.559 144.667 282.523C143.792 283.499 142.206 283.816 141.116 283.106C139.961 282.345 139.67 280.811 139.454 279.441C139.074 276.981 137.564 273.494 139.936 271.592Z" fill="#121212"/>
<path d="M202.049 223.531C201.934 223.417 201.706 223.391 201.592 223.531C201.288 223.911 200.958 224.292 200.679 224.685C200.539 224.875 200.4 225.065 200.26 225.256C200.121 225.446 199.956 225.636 199.829 225.852C199.677 226.105 200.019 226.359 200.235 226.156C200.4 225.991 200.552 225.801 200.704 225.623C200.856 225.446 201.008 225.268 201.161 225.091C201.478 224.736 201.757 224.355 202.049 223.987C202.15 223.848 202.175 223.67 202.049 223.531Z" fill="#121212"/>
<path d="M249.587 239.801C248.624 239.813 247.685 240.003 246.784 240.333C246.505 238.418 246.226 236.516 245.935 234.601C245.63 232.585 245.262 230.569 244.983 228.54C244.971 228.438 244.793 228.464 244.806 228.565C245.034 230.632 245.174 232.699 245.415 234.766C245.656 236.795 245.922 238.824 246.201 240.853C246.226 241.018 246.455 241.132 246.594 241.081C247.545 240.688 248.535 240.485 249.575 240.46C250.019 240.447 250.019 239.801 249.587 239.801Z" fill="#121212"/>
<path d="M111.41 304.918C109.596 308.292 105.741 309.927 102.202 310.752C101.136 311.005 100.058 311.196 98.9801 311.398C98.1303 311.551 97.2297 311.652 96.4179 311.969C94.5661 312.679 96.5955 313.821 97.5341 314.239C98.0922 314.493 98.2317 315.304 97.94 315.799C97.5975 316.357 96.9507 316.458 96.3799 316.205C95.6062 315.85 94.7564 315.33 94.1603 314.657L92.9553 318.715H74.7667L73.346 292.998L100.769 292.542L100.046 294.964C103.077 294.089 106.806 293.759 109.52 295.585C112.59 297.665 113.097 301.761 111.41 304.918ZM108.29 297.665C105.766 295.889 102.075 296.561 99.3606 297.449C99.3352 297.462 99.3099 297.475 99.2845 297.475L95.5935 309.839C96.2277 309.598 96.9253 309.433 97.5468 309.306C101.098 308.583 105.119 308.076 107.871 305.464C109.939 303.511 111.055 299.618 108.29 297.665Z" fill="#0E3F41"/>
<path d="M95.5046 298.907C94.9338 300.911 94.3631 302.902 93.8684 304.918C93.767 305.324 94.3631 305.476 94.4899 305.083C95.1368 303.105 95.7075 301.101 96.2783 299.11C96.4178 298.628 95.6441 298.425 95.5046 298.907Z" fill="#121212"/>
<path d="M92.9299 308.545C92.6382 309.547 92.3465 310.536 92.0547 311.538C91.763 312.54 91.5474 313.554 91.2937 314.556C91.1923 314.975 91.8011 315.139 91.9279 314.734C92.245 313.744 92.6002 312.755 92.8792 311.766L93.7164 308.761C93.8559 308.254 93.0694 308.038 92.9299 308.545Z" fill="#121212"/>
<path d="M91.8772 305.667C91.7757 305.641 91.6362 305.692 91.6108 305.819C91.5347 306.25 91.4713 306.681 91.3952 307.1C91.3825 307.214 91.4206 307.341 91.5474 307.366C91.6489 307.391 91.7884 307.341 91.8138 307.214C91.8899 306.783 91.9533 306.351 92.0294 305.933C92.0421 305.819 91.9914 305.692 91.8772 305.667Z" fill="#121212"/>
<path d="M270.833 262.132C270.668 264.491 269.577 266.685 267.966 268.384C267.776 268.587 268.068 268.866 268.271 268.688C270.11 267.027 271.125 264.605 271.201 262.132C271.201 261.891 270.846 261.904 270.833 262.132Z" fill="#121212"/>
<path d="M151.541 210.33C150.565 209.886 149.588 209.429 148.612 208.998C148.409 208.909 148.218 209.214 148.434 209.303C149.411 209.759 150.387 210.19 151.364 210.634C151.567 210.723 151.757 210.419 151.541 210.33Z" fill="#121212"/>
<path d="M87.1712 239.712C84.6218 242.933 81.5142 245.672 78.7619 248.715C75.8446 251.936 73.5995 255.703 70.6823 258.924C68.1455 261.739 65.114 264.11 61.7909 265.924C59.4444 267.204 53.9777 270.286 51.1872 269.601C45.7839 268.257 49.8301 259.165 51.5297 256.172C53.5591 252.583 56.413 249.476 59.4317 246.699C62.59 243.808 66.0146 241.233 69.4139 238.646C73.2317 235.73 77.0369 232.826 80.8547 229.909C81.7806 229.212 82.6812 228.476 83.6325 227.804C84.4189 227.246 85.2814 226.79 86.2453 226.675C87.9069 226.498 89.4163 227.589 90.2154 228.983C92.3082 232.648 89.4036 236.896 87.1712 239.712Z" fill="#0E3F41"/>
<path d="M29.3585 245.533C30.1322 241.373 31.8192 237.442 32.7831 233.333C34.0642 227.88 34.0642 222.212 35.0662 216.708C36.0682 211.205 38.326 205.562 42.8922 202.341C44.1606 201.453 45.6065 200.755 47.1412 200.641C49.919 200.426 52.5699 202.15 54.1427 204.458C55.7028 206.754 56.3497 209.556 56.7302 212.321C58.2396 223.188 56.1087 234.538 50.7435 244.112C49.0692 247.105 47.0905 249.92 45.6318 253.014C43.6912 257.11 42.6765 261.625 42.4736 266.152C42.3848 268.118 42.4228 270.172 41.5603 271.947C40.7359 273.672 37.7171 276.297 35.637 275.194C33.7851 274.205 32.5041 268.384 31.8445 266.507C29.5234 259.812 28.0394 252.609 29.3585 245.533Z" fill="#0E3F41"/>
<path d="M11.1699 245.456C10.7893 243.427 10.4722 241.094 11.804 239.521C13.6432 237.34 17.3469 238.241 19.3382 240.282C21.634 242.628 22.5853 245.989 22.877 249.261C23.1687 252.532 22.9024 255.829 23.1561 259.088C23.5493 264.098 25.1728 268.904 26.2255 273.811C27.1895 278.275 25.3631 281.319 22.0526 276.906C19.8076 273.925 18.1206 270.476 16.7381 267.027C13.9857 260.103 12.5524 252.735 11.1699 245.456Z" fill="#0E3F41"/>
<path d="M73.2444 242.349C72.2424 244.176 71.1135 245.887 69.769 247.473C68.4246 249.045 66.9405 250.503 65.4184 251.911C62.3616 254.726 59.0638 257.288 56.1592 260.268C54.764 261.701 53.4576 263.223 52.3414 264.884C51.0349 266.824 50.071 268.942 49.3353 271.161C48.4601 273.786 47.8006 276.487 47.0776 279.163C46.3166 281.953 45.5556 284.755 44.7946 287.545C43.9701 290.589 43.1456 293.619 42.4861 296.701C42.169 298.197 41.8899 299.706 41.6616 301.228C41.5601 301.938 41.484 302.661 41.4079 303.384C41.3699 303.777 41.3445 304.157 41.3191 304.55C41.3064 304.703 41.3065 304.855 41.3065 305.007C41.3446 304.652 41.408 304.297 41.446 303.967C41.5475 303.168 41.6617 302.369 41.7885 301.57C42.0041 300.214 42.2705 298.869 42.5622 297.538C43.1583 294.849 43.894 292.212 44.6297 289.561C46.139 284.121 47.5723 278.656 49.1704 273.253C49.8934 270.819 50.7559 268.422 52.0751 266.228C53.1278 264.491 54.3962 262.906 55.7787 261.422C58.6072 258.404 61.8543 255.829 64.9745 253.116C68.3738 250.148 71.9253 246.877 73.9293 242.755C74.1449 242.286 73.4981 241.893 73.2444 242.349Z" fill="#0F172A"/>
<path d="M41.2685 305.629C41.2939 305.426 41.2939 305.21 41.3066 304.995C41.2685 305.21 41.2557 305.426 41.2685 305.629Z" fill="#0F172A"/>
<path d="M41.2814 306.009C41.2687 305.882 41.2686 305.755 41.2686 305.628C41.2559 305.755 41.2305 305.882 41.2051 305.996C41.1796 306.06 41.2814 306.06 41.2814 306.009Z" fill="#0F172A"/>
<path d="M39.6576 251.112C40.0255 246.255 40.888 241.424 42.5623 236.833C42.613 236.694 42.3974 236.63 42.3467 236.77C39.2645 244.886 38.8079 253.623 38.9093 262.221C38.9601 266.647 39.1503 271.072 39.1883 275.498C39.2391 280.089 39.0742 284.667 38.681 289.232C38.2625 294.063 37.6536 298.869 37.0194 303.676C31.7303 292.478 26.8977 281.065 22.6106 269.449C21.3549 266.038 20.1372 262.601 18.9703 259.152C18.8181 258.708 18.1205 258.898 18.26 259.342C22.3696 271.567 27.0499 283.601 32.301 295.382C33.785 298.705 35.3071 302.002 36.8926 305.286C37.0828 305.692 37.6029 305.426 37.6409 305.083C38.8205 295.839 39.924 286.581 39.8606 277.248C39.7972 268.561 38.9981 259.837 39.6576 251.112Z" fill="#0F172A"/>
<path d="M22.2682 290.931C24.2976 300.277 25.6802 310.067 24.2215 319.476C27.4939 319.489 43.9956 319.578 49.3102 319.527C49.2467 318.703 49.1833 317.891 49.1453 317.067C48.8409 311.234 49.2214 305.362 50.959 299.757C51.3776 298.4 52.2528 293.987 52.8109 292.668L52.7094 290.931H22.2682Z" fill="#FFC543"/>
<path d="M53.9778 285.745L21.3422 285.795C21.0632 285.795 20.7969 285.821 20.5305 285.871V293.417C20.7969 293.467 21.0632 293.493 21.3422 293.493L53.2928 293.429L53.9778 285.745Z" fill="#1E0905"/>
<path d="M48.0545 297.196C47.5978 297.728 47.2427 298.4 46.9256 299.022C46.6085 299.643 46.3421 300.303 46.0884 300.962C45.5811 302.319 45.2766 303.689 45.1371 305.121C45.0864 305.717 46.0884 305.87 46.2026 305.261C46.4436 303.942 46.7606 302.611 47.1919 301.33C47.4075 300.696 47.6612 300.074 47.9403 299.453C48.2066 298.844 48.5491 298.248 48.8028 297.627C48.9676 297.221 48.3335 296.866 48.0545 297.196Z" fill="#0F172A"/>
<path d="M45.7458 308.9C45.7585 308.469 45.0862 308.469 45.0735 308.9C44.9974 311.081 44.5789 313.237 44.6423 315.431C44.6677 316.128 45.6316 316.09 45.695 315.431C45.936 313.25 45.6697 311.081 45.7458 308.9Z" fill="#0F172A"/>
<path d="M43.6276 317.612C41.3699 317.244 39.0488 317.13 36.7784 317.409C36.0174 317.498 36.1569 318.551 36.9179 318.449C39.1122 318.157 41.3319 318.094 43.5262 318.348C43.9448 318.398 44.0462 317.676 43.6276 317.612Z" fill="#0F172A"/>
<path d="M309.227 222.187C306.944 223.201 304.077 225.091 303.735 227.792C303.633 228.591 302.39 228.946 302.2 227.995C301.908 226.549 301.262 225.23 300.196 224.19C299.093 223.1 297.609 222.63 296.416 221.654C296.049 221.35 296.251 220.652 296.708 220.563C299.042 220.107 301.553 218.826 302.593 216.645C302.479 216.252 302.39 215.833 302.352 215.402C302.302 214.819 302.834 214.337 303.367 214.248C303.963 214.159 304.458 214.54 304.648 215.085C305.155 216.569 305.878 217.875 306.779 219.092C307.54 219.752 308.403 220.322 309.214 220.88C309.633 221.185 309.785 221.946 309.227 222.187Z" fill="#D9E0FC"/>
<path d="M317.928 237.049C317.383 236.517 316.799 236.009 316.228 235.515C316.533 235.363 316.85 235.198 317.154 235.033C317.56 234.805 317.725 234.221 317.471 233.828C317.192 233.384 316.723 233.321 316.267 233.511C316.127 233.575 315.987 233.638 315.861 233.701C316.026 232.687 316.203 231.66 316.431 230.645C316.609 229.846 315.404 229.504 315.201 230.303C314.909 231.47 314.58 232.636 314.262 233.79C313.717 233.321 313.172 232.839 312.626 232.37C312.335 232.116 311.903 232.091 311.624 232.37C311.345 232.649 311.358 233.093 311.624 233.372C312.144 233.93 312.664 234.488 313.172 235.058C312.918 235.198 312.652 235.337 312.411 235.502C312.005 235.756 311.561 235.959 311.13 236.174C310.749 236.364 310.635 236.91 310.838 237.265C311.066 237.658 311.535 237.747 311.929 237.544C312.322 237.341 312.728 237.113 313.134 236.96C313.26 236.91 313.375 236.859 313.489 236.808C313.425 237.062 313.362 237.316 313.311 237.556C313.108 238.406 312.804 239.281 312.766 240.156C312.715 241.386 314.529 241.576 314.871 240.435C315.1 239.649 315.1 238.787 315.201 237.975C315.226 237.772 315.264 237.569 315.29 237.354C315.658 237.747 316.038 238.14 316.431 238.533C316.825 238.913 317.535 238.964 317.928 238.533C318.309 238.127 318.347 237.455 317.928 237.049Z" fill="#D9E0FC"/>
<path d="M31.4515 63.1776C29.79 62.4421 28.5597 61.1233 27.9128 59.4367C27.6845 58.828 26.86 58.79 26.6444 59.4367C26.3654 60.261 25.8833 60.9965 25.3379 61.6559C25.3126 61.694 25.2872 61.732 25.2618 61.7573C24.7672 62.1758 24.1964 62.5309 23.5749 62.7338C23.169 62.8606 23.1436 63.4693 23.5749 63.5834C24.4247 63.8117 25.1603 64.1541 25.7818 64.7881C26.378 65.4095 26.7585 66.1704 26.898 67.0073C27.0122 67.6921 28.0523 67.4005 27.9508 66.7157C27.8367 65.9929 28.5977 65.4602 29.1431 65.1686C29.8914 64.7628 30.6905 64.4204 31.4769 64.0653C31.794 63.9258 31.794 63.3298 31.4515 63.1776Z" fill="#D9E0FC"/>
<path d="M22.9021 45.5382C23.2953 45.703 23.8027 46.0454 23.6251 46.4259C23.5236 46.6414 23.2699 46.7175 23.0416 46.7809C20.6571 47.3643 16.2558 48.2773 16.408 51.5998C16.4334 52.3099 15.3679 52.4241 15.1903 51.7646C14.5688 49.3299 13.0848 47.1233 10.8271 45.9567C10.3198 45.6904 10.5988 44.9929 11.0935 44.9548C12.3619 44.8661 13.5668 44.3461 14.5308 43.5346C15.685 42.5708 15.9767 42.0255 16.2684 40.6052C16.3826 40.0346 16.7124 39.4385 17.2832 39.2991C17.3847 39.2737 17.5115 39.261 17.613 39.3117C17.8159 39.3878 17.9047 39.6288 17.9681 39.8317C18.7545 42.1143 20.2766 44.2193 22.4074 45.3226C22.585 45.386 22.7372 45.4621 22.9021 45.5382Z" fill="#D9E0FC"/>
<path d="M281.031 80.2593C280.435 79.8916 279.407 79.7901 278.989 79.2068C278.24 78.1416 280.067 78.1796 280.574 78.0401C281.513 77.7865 282.274 77.0636 282.781 76.2267C283.288 75.3897 283.568 74.4387 283.834 73.5002C284.468 73.8426 284.595 74.6542 284.861 75.3263C285.318 76.4676 286.358 77.3046 287.538 77.6089C287.956 77.7104 290.227 78.2049 288.654 79.0165C287.601 79.5491 286.409 80.0057 285.546 80.8426C285.001 81.3752 284.189 83.9242 283.568 83.8227C283.288 83.7847 283.086 83.5564 282.959 83.3028C282.845 83.0492 282.794 82.7702 282.718 82.5039C282.578 82.022 282.35 81.5655 282.033 81.1724C281.766 80.8173 281.424 80.5129 281.031 80.2593Z" fill="#D9E0FC"/>
<path d="M14.0998 85.4456C11.4743 86.2952 10.0157 88.8568 9.36878 91.3677C9.17853 92.0778 8.02427 91.9384 8.07501 91.1902C8.15111 89.8586 7.65644 88.5905 6.80663 87.576C5.79192 86.3586 4.56158 85.9909 3.15368 85.3568C2.95074 85.2681 2.70974 85.1413 2.67169 84.913C2.63364 84.6974 2.81121 84.4945 2.98878 84.3677C3.58492 83.9619 4.35866 83.9999 5.06895 83.8605C6.76858 83.5434 8.20184 82.1104 8.5443 80.4239C8.62041 80.0688 8.64579 79.6883 8.798 79.3586C8.9502 79.0289 9.29266 78.7499 9.66049 78.8007C10.1044 78.8641 10.3327 79.346 10.4849 79.7644C10.7893 80.6141 10.9923 81.413 11.6392 82.0597C12.4129 82.8333 13.3514 83.442 14.29 83.9746C14.9115 84.3297 14.734 85.2427 14.0998 85.4456Z" fill="#D9E0FC"/>
</svg>
