<svg width="101" height="34" viewBox="0 0 101 34" fill="none" xmlns="http://www.w3.org/2000/svg">
<path d="M33.6626 33.7189L33.6792 0.321914C33.6792 0.321914 24.6872 0.125612 16.9237 4.84263C16.9237 4.84263 32.8113 12.0333 33.6632 33.7189H33.6626Z" fill="#0E3F41"/>
<path d="M0.184113 33.7189L0.167431 0.321914C0.167431 0.321914 9.15947 0.125612 16.923 4.84263C16.923 4.84263 1.0354 12.0333 0.183472 33.7189H0.184113Z" fill="#0E3F41"/>
<path fill-rule="evenodd" clip-rule="evenodd" d="M34 0H0V34H34V0ZM33.3585 0.641509V33.3585H0.64151V0.641509H33.3585Z" fill="#0E3F41"/>
<path d="M57.5611 23.6918C56.5511 23.6918 55.6818 23.4872 54.9531 23.0781C54.2287 22.6648 53.6705 22.081 53.2784 21.3267C52.8864 20.5682 52.6903 19.6712 52.6903 18.6357C52.6903 17.6257 52.8864 16.7393 53.2784 15.9766C53.6705 15.2138 54.2223 14.6193 54.9339 14.1932C55.6499 13.767 56.4893 13.554 57.4524 13.554C58.1001 13.554 58.7031 13.6584 59.2614 13.8672C59.8239 14.0717 60.3139 14.3807 60.7315 14.794C61.1534 15.2074 61.4815 15.7273 61.7159 16.3537C61.9503 16.9759 62.0675 17.7045 62.0675 18.5398V19.2876H53.777V17.6001H59.5043C59.5043 17.2081 59.419 16.8608 59.2486 16.5582C59.0781 16.2557 58.8416 16.0192 58.5391 15.8487C58.2408 15.674 57.8935 15.5866 57.4972 15.5866C57.0838 15.5866 56.7173 15.6825 56.3977 15.8743C56.0824 16.0618 55.8352 16.3153 55.6562 16.6349C55.4773 16.9503 55.3857 17.3018 55.3814 17.6896V19.294C55.3814 19.7798 55.4709 20.1996 55.6499 20.5533C55.8331 20.907 56.0909 21.1797 56.4233 21.3714C56.7557 21.5632 57.1499 21.6591 57.6058 21.6591C57.9084 21.6591 58.1854 21.6165 58.4368 21.5312C58.6882 21.446 58.9034 21.3182 59.0824 21.1477C59.2614 20.9773 59.3977 20.7685 59.4915 20.5213L62.0099 20.6875C61.8821 21.2926 61.62 21.821 61.2237 22.2727C60.8317 22.7202 60.3246 23.0696 59.7024 23.321C59.0845 23.5682 58.3707 23.6918 57.5611 23.6918ZM66.5675 10.4091V23.5H63.8445V10.4091H66.5675ZM73.1848 23.6918C72.1919 23.6918 71.3333 23.4808 70.6088 23.0589C69.8887 22.6328 69.3326 22.0405 68.9405 21.282C68.5485 20.5192 68.3525 19.6349 68.3525 18.6293C68.3525 17.6151 68.5485 16.7287 68.9405 15.9702C69.3326 15.2074 69.8887 14.6151 70.6088 14.1932C71.3333 13.767 72.1919 13.554 73.1848 13.554C74.1777 13.554 75.0343 13.767 75.7544 14.1932C76.4789 14.6151 77.0371 15.2074 77.4292 15.9702C77.8212 16.7287 78.0172 17.6151 78.0172 18.6293C78.0172 19.6349 77.8212 20.5192 77.4292 21.282C77.0371 22.0405 76.4789 22.6328 75.7544 23.0589C75.0343 23.4808 74.1777 23.6918 73.1848 23.6918ZM73.1976 21.5824C73.6493 21.5824 74.0265 21.4545 74.329 21.1989C74.6316 20.9389 74.8596 20.5852 75.013 20.1378C75.1706 19.6903 75.2495 19.1811 75.2495 18.6101C75.2495 18.0391 75.1706 17.5298 75.013 17.0824C74.8596 16.6349 74.6316 16.2812 74.329 16.0213C74.0265 15.7614 73.6493 15.6314 73.1976 15.6314C72.7417 15.6314 72.3581 15.7614 72.0471 16.0213C71.7402 16.2812 71.508 16.6349 71.3503 17.0824C71.1969 17.5298 71.1202 18.0391 71.1202 18.6101C71.1202 19.1811 71.1969 19.6903 71.3503 20.1378C71.508 20.5852 71.7402 20.9389 72.0471 21.1989C72.3581 21.4545 72.7417 21.5824 73.1976 21.5824ZM82.5108 17.8239V23.5H79.7878V13.6818H82.383V15.4141H82.498C82.7154 14.843 83.0797 14.3913 83.5911 14.0589C84.1025 13.7223 84.7225 13.554 85.4512 13.554C86.133 13.554 86.7275 13.7031 87.2346 14.0014C87.7417 14.2997 88.1358 14.7259 88.4171 15.2798C88.6983 15.8295 88.839 16.4858 88.839 17.2486V23.5H86.1159V17.7344C86.1202 17.1335 85.9668 16.6648 85.6557 16.3281C85.3446 15.9872 84.9164 15.8168 84.3709 15.8168C84.0044 15.8168 83.6806 15.8956 83.3993 16.0533C83.1223 16.2109 82.905 16.4411 82.7473 16.7436C82.5939 17.0419 82.5151 17.402 82.5108 17.8239ZM92.5767 23.6662C92.1548 23.6662 91.7926 23.517 91.4901 23.2188C91.1918 22.9162 91.0426 22.554 91.0426 22.1321C91.0426 21.7145 91.1918 21.3565 91.4901 21.0582C91.7926 20.7599 92.1548 20.6108 92.5767 20.6108C92.9858 20.6108 93.3438 20.7599 93.6506 21.0582C93.9574 21.3565 94.1108 21.7145 94.1108 22.1321C94.1108 22.4134 94.0384 22.6712 93.8935 22.9055C93.7528 23.1357 93.5675 23.321 93.3374 23.4616C93.1072 23.598 92.8537 23.6662 92.5767 23.6662ZM97.938 23.6662C97.5162 23.6662 97.1539 23.517 96.8514 23.2188C96.5531 22.9162 96.4039 22.554 96.4039 22.1321C96.4039 21.7145 96.5531 21.3565 96.8514 21.0582C97.1539 20.7599 97.5162 20.6108 97.938 20.6108C98.3471 20.6108 98.7051 20.7599 99.0119 21.0582C99.3187 21.3565 99.4721 21.7145 99.4721 22.1321C99.4721 22.4134 99.3997 22.6712 99.2548 22.9055C99.1142 23.1357 98.9288 23.321 98.6987 23.4616C98.4686 23.598 98.215 23.6662 97.938 23.6662Z" fill="#121212"/>
</svg>
