<svg width="74" height="74" viewBox="0 0 74 74" fill="none" xmlns="http://www.w3.org/2000/svg">
<path d="M0.0365359 73.2656L0 0.00254234C0 0.00254234 19.6971 -0.428085 36.7031 9.91966C36.7031 9.91966 1.90127 25.6939 0.0351307 73.2656H0.0365359Z" fill="#C48854"/>
<path d="M73.3697 73.2656L73.4063 0.00254234C73.4063 0.00254234 53.7092 -0.428085 36.7031 9.91966C36.7031 9.91966 71.505 25.6939 73.3711 73.2656H73.3697Z" fill="#C48854"/>
<path d="M19.3295 70.2727C18.0682 70.2727 16.9801 69.9943 16.0653 69.4375C15.1562 68.875 14.4545 68.0909 13.9602 67.0852C13.4716 66.0739 13.2273 64.8977 13.2273 63.5568C13.2273 62.2159 13.4716 61.0341 13.9602 60.0114C14.4545 58.983 15.142 58.1818 16.0227 57.608C16.9091 57.0284 17.9432 56.7386 19.125 56.7386C19.8068 56.7386 20.4801 56.8523 21.1449 57.0795C21.8097 57.3068 22.4148 57.6761 22.9602 58.1875C23.5057 58.6932 23.9403 59.3636 24.2642 60.1989C24.5881 61.0341 24.75 62.0625 24.75 63.2841V64.1364H14.6591V62.3977H22.7045C22.7045 61.6591 22.5568 61 22.2614 60.4205C21.9716 59.8409 21.5568 59.3835 21.017 59.0483C20.483 58.7131 19.8523 58.5455 19.125 58.5455C18.3239 58.5455 17.6307 58.7443 17.0455 59.142C16.4659 59.5341 16.0199 60.0455 15.7074 60.6761C15.3949 61.3068 15.2386 61.983 15.2386 62.7045V63.8636C15.2386 64.8523 15.4091 65.6903 15.75 66.3778C16.0966 67.0597 16.5767 67.5795 17.1903 67.9375C17.804 68.2898 18.517 68.4659 19.3295 68.4659C19.858 68.4659 20.3352 68.392 20.7614 68.2443C21.1932 68.0909 21.5653 67.8636 21.8778 67.5625C22.1903 67.2557 22.4318 66.875 22.6023 66.4205L24.5455 66.9659C24.3409 67.625 23.9972 68.2045 23.5142 68.7045C23.0313 69.1989 22.4347 69.5852 21.7244 69.8636C21.0142 70.1364 20.2159 70.2727 19.3295 70.2727ZM29.821 52.5455V70H27.8097V52.5455H29.821ZM38.8232 70.2727C37.6413 70.2727 36.6044 69.9915 35.7124 69.429C34.826 68.8665 34.1328 68.0795 33.6328 67.0682C33.1385 66.0568 32.8913 64.875 32.8913 63.5227C32.8913 62.1591 33.1385 60.9687 33.6328 59.9517C34.1328 58.9347 34.826 58.1449 35.7124 57.5824C36.6044 57.0199 37.6413 56.7386 38.8232 56.7386C40.005 56.7386 41.0391 57.0199 41.9254 57.5824C42.8175 58.1449 43.5107 58.9347 44.005 59.9517C44.505 60.9687 44.755 62.1591 44.755 63.5227C44.755 64.875 44.505 66.0568 44.005 67.0682C43.5107 68.0795 42.8175 68.8665 41.9254 69.429C41.0391 69.9915 40.005 70.2727 38.8232 70.2727ZM38.8232 68.4659C39.7209 68.4659 40.4595 68.2358 41.0391 67.7756C41.6186 67.3153 42.0476 66.7102 42.326 65.9602C42.6044 65.2102 42.7436 64.3977 42.7436 63.5227C42.7436 62.6477 42.6044 61.8324 42.326 61.0767C42.0476 60.321 41.6186 59.7102 41.0391 59.2443C40.4595 58.7784 39.7209 58.5455 38.8232 58.5455C37.9254 58.5455 37.1868 58.7784 36.6072 59.2443C36.0277 59.7102 35.5987 60.321 35.3203 61.0767C35.0419 61.8324 34.9027 62.6477 34.9027 63.5227C34.9027 64.3977 35.0419 65.2102 35.3203 65.9602C35.5987 66.7102 36.0277 67.3153 36.6072 67.7756C37.1868 68.2358 37.9254 68.4659 38.8232 68.4659ZM49.8366 62.125V70H47.8253V56.9091H49.7685V58.9545H49.9389C50.2457 58.2898 50.7116 57.7557 51.3366 57.3523C51.9616 56.9432 52.7685 56.7386 53.7571 56.7386C54.6435 56.7386 55.419 56.9205 56.0838 57.2841C56.7486 57.642 57.2656 58.1875 57.6349 58.9205C58.0043 59.6477 58.1889 60.5682 58.1889 61.6818V70H56.1776V61.8182C56.1776 60.7898 55.9105 59.9886 55.3764 59.4148C54.8423 58.8352 54.1094 58.5455 53.1776 58.5455C52.5355 58.5455 51.9616 58.6847 51.456 58.9631C50.956 59.2415 50.5611 59.6477 50.2713 60.1818C49.9815 60.7159 49.8366 61.3636 49.8366 62.125Z" fill="#C48854"/>
</svg>
