<svg width="98" height="34" viewBox="0 0 98 34" fill="none" xmlns="http://www.w3.org/2000/svg">
<rect width="98" height="34" fill="#848484"/>
<g id="Website">
<path d="M-493 -910C-493 -911.105 -492.105 -912 -491 -912H13749C13750.1 -912 13751 -911.105 13751 -910V3552C13751 3553.1 13750.1 3554 13749 3554H-491C-492.104 3554 -493 3553.1 -493 3552V-910Z" fill="currentColor" fill-opacity="0.1"/>
<g id="Home page" clip-path="url(#clip0_1_14)">
<rect width="1440" height="3166" transform="translate(-94 -63)" fill="currentColor"/>
<g id="JJ">
<g id="Rectangle 24842" filter="url(#filter0_b_1_14)">
<rect x="-34" y="-23" width="1320" height="80" rx="10" fill="currentColor"/>
</g>
<g id="Group 48098717">
<g id="Vector">
<path d="M0.0165171 34.0001L0 0.00118469C0 0.00118469 9.06021 -0.198951 16.8827 4.60331C16.8827 4.60331 0.874663 11.9233 0.0165171 34.0001Z" fill="#0E3F41"/>
<path d="M33.7489 34.0001L33.7654 0.00118469C33.7654 0.00118469 24.7053 -0.198951 16.8827 4.60331C16.8827 4.60331 32.8908 11.9233 33.7489 34.0001Z" fill="#0E3F41"/>
<path d="M49.0678 33.3698C47.5046 33.3698 46.1562 33.0212 45.0226 32.324C43.8959 31.6197 43.0263 30.6379 42.4137 29.3787C41.8082 28.1123 41.5054 26.6397 41.5054 24.9607C41.5054 23.2817 41.8082 21.8019 42.4137 20.5213C43.0263 19.2336 43.8783 18.2305 44.9697 17.5119C46.0682 16.7863 47.3497 16.4234 48.8143 16.4234C49.6593 16.4234 50.4937 16.5657 51.3175 16.8503C52.1413 17.1349 52.8912 17.5973 53.5672 18.2376C54.2432 18.8708 54.7818 19.7103 55.1832 20.7561C55.5845 21.8019 55.7852 23.0896 55.7852 24.6192V25.6863H43.2798V23.5093H53.2503C53.2503 22.5845 53.0673 21.7592 52.7011 21.0335C52.342 20.3079 51.828 19.7352 51.1591 19.3154C50.4972 18.8957 49.7156 18.6858 48.8143 18.6858C47.8215 18.6858 46.9624 18.9348 46.2372 19.4328C45.519 19.9237 44.9662 20.564 44.5789 21.3537C44.1917 22.1434 43.998 22.99 43.998 23.8935V25.3448C43.998 26.5827 44.2093 27.6321 44.6318 28.4929C45.0613 29.3467 45.6563 29.9976 46.4167 30.4458C47.1772 30.8869 48.0609 31.1075 49.0678 31.1075C49.7226 31.1075 50.3141 31.015 50.8422 30.83C51.3773 30.6379 51.8386 30.3533 52.2258 29.9763C52.6131 29.5921 52.9124 29.1154 53.1236 28.5463L55.5317 29.2293C55.2782 30.0545 54.8522 30.7802 54.2537 31.4063C53.6552 32.0252 52.9159 32.509 52.0357 32.8576C51.1555 33.1991 50.1662 33.3698 49.0678 33.3698Z" fill="#0E3F41"/>
<path d="M62.0696 11.173V33.0283H59.577V11.173H62.0696Z" fill="#0E3F41"/>
<path d="M73.2257 33.3698C71.7611 33.3698 70.4761 33.0177 69.3706 32.3133C68.2721 31.609 67.4131 30.6237 66.7934 29.3573C66.1808 28.091 65.8745 26.6112 65.8745 24.918C65.8745 23.2105 66.1808 21.7201 66.7934 20.4466C67.4131 19.1731 68.2721 18.1842 69.3706 17.4799C70.4761 16.7756 71.7611 16.4234 73.2257 16.4234C74.6903 16.4234 75.9718 16.7756 77.0703 17.4799C78.1757 18.1842 79.0348 19.1731 79.6474 20.4466C80.267 21.7201 80.5768 23.2105 80.5768 24.918C80.5768 26.6112 80.267 28.091 79.6474 29.3573C79.0348 30.6237 78.1757 31.609 77.0703 32.3133C75.9718 33.0177 74.6903 33.3698 73.2257 33.3698ZM73.2257 31.1075C74.3382 31.1075 75.2536 30.8193 75.9718 30.2431C76.69 29.6668 77.2216 28.9091 77.5667 27.97C77.9117 27.0309 78.0842 26.0136 78.0842 24.918C78.0842 23.8224 77.9117 22.8015 77.5667 21.8552C77.2216 20.909 76.69 20.1442 75.9718 19.5609C75.2536 18.9775 74.3382 18.6858 73.2257 18.6858C72.1132 18.6858 71.1978 18.9775 70.4796 19.5609C69.7614 20.1442 69.2297 20.909 68.8847 21.8552C68.5397 22.8015 68.3672 23.8224 68.3672 24.918C68.3672 26.0136 68.5397 27.0309 68.8847 27.97C69.2297 28.9091 69.7614 29.6668 70.4796 30.2431C71.1978 30.8193 72.1132 31.1075 73.2257 31.1075Z" fill="#0E3F41"/>
<path d="M86.8744 23.1678V33.0283H84.3818V16.6369H86.7899V19.198H87.0012C87.3814 18.3657 87.9588 17.6969 88.7333 17.1918C89.5079 16.6796 90.5077 16.4234 91.7329 16.4234C92.8314 16.4234 93.7925 16.6511 94.6163 17.1064C95.4402 17.5546 96.0809 18.2376 96.5386 19.1553C96.9963 20.066 97.2252 21.2185 97.2252 22.6129V33.0283H94.7325V22.7837C94.7325 21.496 94.4016 20.4928 93.7397 19.7743C93.0778 19.0486 92.1695 18.6858 91.0147 18.6858C90.219 18.6858 89.5079 18.8601 88.8812 19.2087C88.2616 19.5573 87.7722 20.066 87.4131 20.7347C87.054 21.4035 86.8744 22.2145 86.8744 23.1678Z" fill="#0E3F41"/>
</g>
</g>
</g>
</g>
<path d="M-491 -911H13749V-913H-491V-911ZM13750 -910V3552H13752V-910H13750ZM13749 3553H-491V3555H13749V3553ZM-492 3552V-910H-494V3552H-492ZM-491 3553C-491.552 3553 -492 3552.55 -492 3552H-494C-494 3553.66 -492.656 3555 -491 3555V3553ZM13750 3552C13750 3552.55 13749.6 3553 13749 3553V3555C13750.7 3555 13752 3553.66 13752 3552H13750ZM13749 -911C13749.6 -911 13750 -910.552 13750 -910H13752C13752 -911.657 13750.7 -913 13749 -913V-911ZM-491 -913C-492.657 -913 -494 -911.657 -494 -910H-492C-492 -910.552 -491.552 -911 -491 -911V-913Z" fill="black" fill-opacity="0.1"/>
</g>
<defs>
<filter id="filter0_b_1_14" x="-58" y="-47" width="1368" height="128" filterUnits="userSpaceOnUse" color-interpolation-filters="sRGB">
<feFlood flood-opacity="0" result="BackgroundImageFix"/>
<feGaussianBlur in="BackgroundImageFix" stdDeviation="12"/>
<feComposite in2="SourceAlpha" operator="in" result="effect1_backgroundBlur_1_14"/>
<feBlend mode="normal" in="SourceGraphic" in2="effect1_backgroundBlur_1_14" result="shape"/>
</filter>
<clipPath id="clip0_1_14">
<rect width="1440" height="3166" fill="currentColor" transform="translate(-94 -63)"/>
</clipPath>
</defs>
</svg>
