<svg width="51" height="51" viewBox="0 0 51 51" fill="none" xmlns="http://www.w3.org/2000/svg">
<circle cx="25.0012" cy="25.0491" r="25" fill="#677D8A" fill-opacity="0.3"/>
<path d="M25.0012 1.29907C25.0012 0.608716 24.4412 0.0458121 23.7517 0.0803151C20.8955 0.223241 18.0818 0.85535 15.4341 1.95208C12.4009 3.20845 9.64495 5.04994 7.32349 7.3714C5.00203 9.69287 3.16054 12.4488 1.90417 15.482C0.647804 18.5151 0.00115956 21.766 0.00115967 25.0491C0.00115977 28.3321 0.647804 31.583 1.90417 34.6162C3.16054 37.6493 5.00203 40.4053 7.32349 42.7267C9.64496 45.0482 12.4009 46.8897 15.4341 48.1461C18.0818 49.2428 20.8955 49.8749 23.7517 50.0178C24.4412 50.0523 25.0012 49.4894 25.0012 48.7991V48.7991C25.0012 48.1087 24.4411 47.5527 23.7518 47.5144C21.2241 47.3738 18.7352 46.8074 16.3908 45.8364C13.661 44.7056 11.1806 43.0483 9.09126 40.959C7.00194 38.8697 5.3446 36.3893 4.21387 33.6595C3.08314 30.9296 2.50116 28.0038 2.50116 25.0491C2.50116 22.0943 3.08314 19.1685 4.21387 16.4387C5.3446 13.7089 7.00194 11.2285 9.09126 9.13917C11.1806 7.04985 13.661 5.39251 16.3908 4.26178C18.7352 3.29071 21.2241 2.72436 23.7518 2.58379C24.4411 2.54545 25.0012 1.98943 25.0012 1.29907V1.29907Z" fill="#F5682D"/>
<path d="M33.5012 24.183C34.1678 24.5679 34.1678 25.5302 33.5012 25.9151L21.5012 32.8433C20.8345 33.2282 20.0012 32.7471 20.0012 31.9773L20.0012 18.1209C20.0012 17.3511 20.8345 16.8699 21.5012 17.2548L33.5012 24.183Z" fill="#F5682D"/>
</svg>
